<svg width="64" height="64" viewBox="0 0 64 64" fill="none" xmlns="http://www.w3.org/2000/svg">
<g opacity="0.06">
<rect width="64" height="64" rx="16" fill="#1565D8"/>
</g>
<path fill-rule="evenodd" clip-rule="evenodd" d="M22.5338 26.1905C29.6215 27.1907 35.1653 24.6073 39.0259 18.475C39.0452 18.4443 39.0629 18.4128 39.079 18.3806C40.5647 20.0524 41.4671 22.2541 41.4671 24.6666V28.1333C41.4671 31.6369 39.546 34.7867 36.5678 36.4275C36.1797 36.158 35.7083 36 35.2 36C33.8746 36 32.8 37.0745 32.8 38.4C32.8 39.7254 33.8746 40.7999 35.2 40.7999C35.8713 40.7999 36.4783 40.5244 36.9138 40.0801C36.2648 42.1189 34.3103 43.6 32 43.6C29.1619 43.6 26.8607 41.3648 26.8572 38.6063L27.6161 36.5257C24.5338 34.9146 22.5338 31.7081 22.5338 28.1333V26.1905ZM22.5525 24.0658C22.8625 19.1174 26.974 15.2 32.0004 15.2C34.119 15.2 36.0749 15.8958 37.6523 17.0715C37.6038 17.1214 37.5593 17.1778 37.5197 17.2408C34.0452 22.7598 29.1344 25.0258 22.6456 24.0741C22.6144 24.0695 22.5833 24.0668 22.5525 24.0658ZM24.8811 39.6535C25.4037 43.0197 28.3919 45.6 32 45.6C35.6089 45.6 38.5976 43.0186 39.1194 39.6514L42.9556 40.425C44.4795 40.7223 45.6937 41.8745 46.0703 43.3808L47.1766 47.8059C47.3028 48.3108 46.9209 48.7999 46.4004 48.7999H17.6004C17.08 48.7999 16.6981 48.3108 16.8243 47.8059L17.9292 43.3865C18.3067 41.8766 19.5257 40.7227 21.0464 40.4302L24.8811 39.6535Z" fill="#1565D8"/>
<path opacity="0.3" fill-rule="evenodd" clip-rule="evenodd" d="M35.2 39.2C35.6419 39.2 36 38.8418 36 38.4C36 37.9581 35.6419 37.6 35.2 37.6C34.7582 37.6 34.4 37.9581 34.4 38.4C34.4 38.8418 34.7582 39.2 35.2 39.2Z" fill="#1565D8"/>
<path opacity="0.3" fill-rule="evenodd" clip-rule="evenodd" d="M42.9707 23.2H43.2C44.5254 23.2 45.6 24.2745 45.6 25.6V28.8C45.6 30.1254 44.5254 31.2 43.2 31.2H42.6346C42.9176 30.2182 43.067 29.1877 43.067 28.1333V24.6666C43.067 24.1694 43.0342 23.6798 42.9707 23.2Z" fill="#1565D8"/>
<path opacity="0.3" fill-rule="evenodd" clip-rule="evenodd" d="M21.3661 31.2H20.8C19.4745 31.2 18.4 30.1254 18.4 28.8V25.6C18.4 24.2745 19.4745 23.2 20.8 23.2H21.0301C20.9665 23.6798 20.9338 24.1694 20.9338 24.6666V28.1333C20.9338 29.1877 21.0832 30.2182 21.3661 31.2Z" fill="#1565D8"/>
</svg>
