<svg width="16" height="16" viewBox="0 0 16 16" fill="none" xmlns="http://www.w3.org/2000/svg">
<path d="M5.30554 12.4375C5.30554 12.375 5.24304 12.3125 5.14929 12.3125C5.05554 12.3125 4.99304 12.375 4.99304 12.4375C4.99304 12.5 5.05554 12.5625 5.14929 12.5312C5.24304 12.5312 5.30554 12.5 5.30554 12.4375ZM4.33679 12.2812C4.33679 12.3438 4.39929 12.4375 4.49304 12.4375C4.55554 12.4688 4.64929 12.4375 4.68054 12.375C4.68054 12.3125 4.64929 12.25 4.55554 12.2188C4.46179 12.1875 4.36804 12.2188 4.33679 12.2812ZM5.74304 12.25C5.64929 12.25 5.58679 12.3125 5.58679 12.4062C5.58679 12.4688 5.68054 12.5 5.77429 12.4688C5.86804 12.4375 5.93054 12.4062 5.89929 12.3438C5.89929 12.2812 5.80554 12.2188 5.74304 12.25ZM7.77429 0.25C3.46179 0.25 0.149292 3.5625 0.149292 7.875C0.149292 11.3438 2.30554 14.3125 5.43054 15.375C5.83679 15.4375 5.96179 15.1875 5.96179 15C5.96179 14.7812 5.96179 13.7188 5.96179 13.0625C5.96179 13.0625 3.77429 13.5312 3.30554 12.125C3.30554 12.125 2.96179 11.2188 2.46179 11C2.46179 11 1.74304 10.5 2.49304 10.5C2.49304 10.5 3.27429 10.5625 3.71179 11.3125C4.39929 12.5312 5.52429 12.1875 5.99304 11.9688C6.05554 11.4688 6.24304 11.125 6.49304 10.9062C4.74304 10.7188 2.96179 10.4688 2.96179 7.46875C2.96179 6.59375 3.21179 6.1875 3.71179 5.625C3.61804 5.40625 3.36804 4.59375 3.80554 3.5C4.43054 3.3125 5.96179 4.34375 5.96179 4.34375C6.58679 4.15625 7.24304 4.09375 7.89929 4.09375C8.58679 4.09375 9.24304 4.15625 9.86804 4.34375C9.86804 4.34375 11.368 3.28125 12.0243 3.5C12.4618 4.59375 12.1805 5.40625 12.118 5.625C12.618 6.1875 12.9305 6.59375 12.9305 7.46875C12.9305 10.4688 11.0868 10.7188 9.33679 10.9062C9.61804 11.1562 9.86804 11.625 9.86804 12.375C9.86804 13.4062 9.83679 14.7188 9.83679 14.9688C9.83679 15.1875 9.99304 15.4375 10.3993 15.3438C13.5243 14.3125 15.6493 11.3438 15.6493 7.875C15.6493 3.5625 12.118 0.25 7.77429 0.25ZM3.18054 11.0312C3.11804 11.0625 3.14929 11.1562 3.18054 11.2188C3.24304 11.25 3.30554 11.2812 3.36804 11.25C3.39929 11.2188 3.39929 11.125 3.33679 11.0625C3.27429 11.0312 3.21179 11 3.18054 11.0312ZM2.83679 10.7812C2.80554 10.8438 2.83679 10.875 2.89929 10.9062C2.96179 10.9375 3.02429 10.9375 3.05554 10.875C3.05554 10.8438 3.02429 10.8125 2.96179 10.7812C2.89929 10.75 2.86804 10.75 2.83679 10.7812ZM3.83679 11.9062C3.80554 11.9375 3.80554 12.0312 3.89929 12.0938C3.96179 12.1562 4.05554 12.1875 4.08679 12.125C4.11804 12.0938 4.11804 12 4.05554 11.9375C3.99304 11.875 3.89929 11.8438 3.83679 11.9062ZM3.49304 11.4375C3.43054 11.4688 3.43054 11.5625 3.49304 11.625C3.55554 11.6875 3.61804 11.7188 3.68054 11.6875C3.71179 11.6562 3.71179 11.5625 3.68054 11.5C3.61804 11.4375 3.55554 11.4062 3.49304 11.4375Z" fill="#10243E"/>
</svg>
