<svg width="40" height="40" viewBox="0 0 40 40" fill="none" xmlns="http://www.w3.org/2000/svg">
<path opacity="0.3" fill-rule="evenodd" clip-rule="evenodd" d="M19.2456 31.7548L20.3796 32.8887C20.841 33.3502 20.841 34.0984 20.3796 34.5599C19.9181 35.0214 19.1699 35.0214 18.7084 34.5599L15.5571 31.4087C15.0957 30.9472 15.0957 30.199 15.5571 29.7375L18.7084 26.5863C19.1699 26.1248 19.9181 26.1248 20.3796 26.5863C20.841 27.0478 20.841 27.796 20.3796 28.2575L19.2456 29.3914H27.0281V31.7548H19.2456ZM31.7549 19.8422L32.8889 18.7082C33.3503 18.2468 34.0986 18.2468 34.56 18.7082C35.0215 19.1697 35.0215 19.9179 34.56 20.3794L31.4088 23.5306C31.1781 23.7614 30.8757 23.8768 30.5732 23.8768C30.2708 23.8768 29.9684 23.7614 29.7376 23.5306L26.5864 20.3794C26.1249 19.9179 26.1249 19.1697 26.5864 18.7082C27.0479 18.2468 27.7961 18.2468 28.2576 18.7082L29.3915 19.8422V12.0597H31.7549V19.8422ZM19.8423 9.69627H12.0598V7.33286H19.8423L18.7084 6.19894C18.2469 5.73746 18.2469 4.98924 18.7084 4.52775C19.1699 4.06627 19.9181 4.06627 20.3796 4.52775L23.5308 7.67897C23.9923 8.14046 23.9923 8.88868 23.5308 9.35016L20.3796 12.5014C19.9181 12.9629 19.1699 12.9629 18.7084 12.5014C18.2469 12.0399 18.2469 11.2917 18.7084 10.8302L19.8423 9.69627ZM7.33298 19.2455L6.19906 20.3794C5.73758 20.8409 4.98936 20.8409 4.52788 20.3794C4.06639 19.9179 4.06639 19.1697 4.52788 18.7082L7.6791 15.557C8.14058 15.0955 8.8888 15.0955 9.35028 15.557L12.5015 18.7082C12.963 19.1697 12.963 19.9179 12.5015 20.3794C12.04 20.8409 11.2918 20.8409 10.8303 20.3794L9.6964 19.2455V27.028H7.33298V19.2455Z" fill="#1565D8"/>
<path fill-rule="evenodd" clip-rule="evenodd" d="M14.0293 11.6659V5.36341C14.0293 4.05814 12.9711 3 11.6659 3H5.36341C4.05814 3 3 4.05814 3 5.36341V11.6659C3 12.9711 4.05814 14.0293 5.36341 14.0293H11.6659C12.9711 14.0293 14.0293 12.9711 14.0293 11.6659ZM11.6659 25.0585H5.36341C4.05814 25.0585 3 26.1167 3 27.422V33.7244C3 35.0297 4.05814 36.0878 5.36341 36.0878H11.6659C12.9711 36.0878 14.0293 35.0297 14.0293 33.7244V27.422C14.0293 26.1167 12.9711 25.0585 11.6659 25.0585ZM33.7244 14.0293H27.422C26.1167 14.0293 25.0585 12.9711 25.0585 11.6659V5.36341C25.0585 4.05814 26.1167 3 27.422 3H33.7244C35.0297 3 36.0878 4.05814 36.0878 5.36341V11.6659C36.0878 12.9711 35.0297 14.0293 33.7244 14.0293ZM25.0585 27.422V33.7244C25.0585 35.0297 26.1167 36.0878 27.422 36.0878H33.7244C35.0297 36.0878 36.0878 35.0297 36.0878 33.7244V27.422C36.0878 26.1167 35.0297 25.0585 33.7244 25.0585H27.422C26.1167 25.0585 25.0585 26.1167 25.0585 27.422Z" fill="#1565D8"/>
</svg>
