<svg width="40" height="40" viewBox="0 0 40 40" fill="none" xmlns="http://www.w3.org/2000/svg">
<path opacity="0.3" fill-rule="evenodd" clip-rule="evenodd" d="M33.6 27.9772V9.6001C35.4257 9.97187 36.7999 11.5911 36.7999 13.5323V34.3972C36.7999 34.9259 36.299 35.3102 35.7903 35.1716C33.7333 34.6113 28.9207 33.0895 28.1776 32.8905C26.6139 32.4717 25.1254 32.2146 23.2726 32.0873C25.6311 30.9522 28.2645 30.3847 31.2 30.3847C32.5254 30.3847 33.6 29.3068 33.6 27.9772ZM6.39995 9.6001V27.9772C6.39995 29.3068 7.47447 30.3847 8.79995 30.3847C11.7606 30.3847 14.3987 30.9523 16.7419 32.0863C14.8823 32.2132 13.3901 32.4706 11.8223 32.8905C11.0792 33.0895 6.26663 34.6113 4.2096 35.1716C3.70089 35.3102 3.19995 34.9259 3.19995 34.3972V13.5323C3.19995 11.5911 4.57416 9.97187 6.39995 9.6001Z" fill="#1565D8"/>
<path fill-rule="evenodd" clip-rule="evenodd" d="M19.2 31.9978C16.2142 30.0832 12.7536 29.1251 8.8 29.1251C8.35817 29.1251 8 28.7621 8 28.3143V5.61088C8 5.16307 8.35817 4.80005 8.8 4.80005C12.7003 4.80005 16.1717 5.66654 19.2 7.40131V31.9978ZM20.8 7.40947C23.8607 5.6696 27.332 4.80005 31.2 4.80005C31.6418 4.80005 32 5.16307 32 5.61088V28.3143C32 28.7621 31.6418 29.1251 31.2 29.1251C27.2764 29.1251 23.8157 30.0836 20.8 32V7.40947Z" fill="#1565D8"/>
</svg>
