<svg width="40" height="40" viewBox="0 0 40 40" fill="none" xmlns="http://www.w3.org/2000/svg">
<path d="M15.0879 18.5351L20.6113 24.3636C21.2102 24.9955 22.2947 25.0857 23.503 24.4903C26.5779 23.2154 27.601 22.9046 28.185 23.521L34.5343 30.2209C35.2848 31.0129 35.0845 32.332 34.2452 33.2177C29.8873 37.8163 22.804 37.8163 18.446 33.2177L6.58535 20.7019C2.24922 16.1263 2.24922 8.72373 6.58535 4.1481C7.44233 3.24379 8.75839 3.02128 9.53719 3.8431L15.8864 10.543C16.4367 11.1237 16.1417 12.2054 14.9402 15.4281C14.3816 16.6861 14.4711 17.8842 15.0879 18.5351Z" fill="#1565D8"/>
</svg>
