<svg width="40" height="40" viewBox="0 0 40 40" fill="none" xmlns="http://www.w3.org/2000/svg">
<path fill-rule="evenodd" clip-rule="evenodd" d="M10.5338 14.1905C17.6215 15.1908 23.1653 12.6074 27.0259 6.47507C27.0452 6.44433 27.0629 6.41281 27.079 6.38065C28.5647 8.05245 29.4671 10.2542 29.4671 12.6667V16.1333C29.4671 19.637 27.546 22.7867 24.5678 24.4276C24.1797 24.158 23.7083 24 23.2 24C21.8746 24 20.8 25.0745 20.8 26.4C20.8 27.7255 21.8746 28.8 23.2 28.8C23.8713 28.8 24.4783 28.5244 24.9138 28.0802C24.2648 30.119 22.3103 31.6 20 31.6C17.1619 31.6 14.8607 29.3649 14.8572 26.6064L15.6161 24.5258C12.5338 22.9147 10.5338 19.7082 10.5338 16.1333V14.1905ZM10.5525 12.0658C10.8625 7.11748 14.974 3.20001 20.0004 3.20001C22.119 3.20001 24.0749 3.89591 25.6523 5.07158C25.6038 5.12143 25.5593 5.17791 25.5197 5.24083C22.0452 10.7599 17.1344 13.0259 10.6456 12.0741C10.6144 12.0696 10.5833 12.0668 10.5525 12.0658ZM12.8811 27.6536C13.4037 31.0197 16.3919 33.6 20 33.6C23.6089 33.6 26.5976 31.0187 27.1194 27.6515L30.9556 28.425C32.4795 28.7223 33.6937 29.8746 34.0703 31.3809L35.1766 35.806C35.3028 36.3109 34.9209 36.8 34.4004 36.8H5.60044C5.07999 36.8 4.6981 36.3109 4.82433 35.806L5.92917 31.3866C6.30666 29.8767 7.52574 28.7228 9.04645 28.4303L12.8811 27.6536Z" fill="#1565D8"/>
<path opacity="0.3" fill-rule="evenodd" clip-rule="evenodd" d="M23.1999 27.2C23.6417 27.2 23.9999 26.8418 23.9999 26.4C23.9999 25.9581 23.6417 25.6 23.1999 25.6C22.7581 25.6 22.3999 25.9581 22.3999 26.4C22.3999 26.8418 22.7581 27.2 23.1999 27.2Z" fill="#1565D8"/>
<path opacity="0.3" fill-rule="evenodd" clip-rule="evenodd" d="M30.9708 11.2H31.2001C32.5256 11.2 33.6001 12.2745 33.6001 13.6V16.8C33.6001 18.1255 32.5256 19.2 31.2001 19.2H30.6348C30.9177 18.2182 31.0671 17.1877 31.0671 16.1333V12.6667C31.0671 12.1694 31.0343 11.6799 30.9708 11.2Z" fill="#1565D8"/>
<path opacity="0.3" fill-rule="evenodd" clip-rule="evenodd" d="M9.366 19.2H8.7999C7.47442 19.2 6.3999 18.1255 6.3999 16.8V13.6C6.3999 12.2745 7.47442 11.2 8.7999 11.2H9.02996C8.96642 11.6799 8.93363 12.1694 8.93363 12.6667V16.1333C8.93363 17.1877 9.08307 18.2182 9.366 19.2Z" fill="#1565D8"/>
</svg>
